<svg xmlns="http://www.w3.org/2000/svg" width="256" height="256" viewBox="0 0 100 100">
	<rect width="100" height="100" rx="20" fill="#000000"></rect>
	<path fill="#fff" d="M35.26 63.77L35.26 63.77Q35.26 61.71 33.56 60.63Q31.86 59.55 27.93 58.73Q23.99 57.90 21.36 56.63L21.36 56.63Q15.58 53.84 15.58 48.54L15.58 48.54Q15.58 44.10 19.32 41.11Q23.07 38.13 28.85 38.13L28.85 38.13Q35.00 38.13 38.80 41.18Q42.59 44.22 42.59 49.08L42.59 49.08L34.88 49.08Q34.88 46.86 33.23 45.38Q31.58 43.91 28.85 43.91L28.85 43.91Q26.31 43.91 24.70 45.08Q23.10 46.25 23.10 48.22L23.10 48.22Q23.10 50 24.59 50.98Q26.09 51.97 30.62 52.97Q35.16 53.97 37.75 55.35Q40.34 56.73 41.59 58.66Q42.84 60.60 42.84 63.36L42.84 63.36Q42.84 68.00 39.00 70.87Q35.16 73.74 28.94 73.74L28.94 73.74Q24.72 73.74 21.42 72.22Q18.12 70.69 16.28 68.03Q14.44 65.36 14.44 62.28L14.44 62.28L21.93 62.28Q22.09 65.01 23.99 66.49Q25.89 67.96 29.04 67.96L29.04 67.96Q32.08 67.96 33.67 66.81Q35.26 65.65 35.26 63.77ZM77.56 58.06L85.56 58.06Q84.86 65.46 80.10 69.60Q75.34 73.74 67.44 73.74L67.44 73.74Q61.92 73.74 57.71 71.12Q53.51 68.50 51.22 63.68Q48.94 58.85 48.84 52.48L48.84 52.48L48.84 48.16Q48.84 41.62 51.16 36.64Q53.48 31.66 57.81 28.96Q62.14 26.26 67.82 26.26L67.82 26.26Q75.47 26.26 80.14 30.42Q84.80 34.58 85.56 42.16L85.56 42.16L77.56 42.16Q76.99 37.18 74.66 34.97Q72.33 32.77 67.82 32.77L67.82 32.77Q62.58 32.77 59.78 36.59Q56.97 40.42 56.90 47.81L56.90 47.81L56.90 51.90Q56.90 59.39 59.58 63.33Q62.27 67.27 67.44 67.27L67.44 67.27Q72.17 67.27 74.55 65.14Q76.93 63.01 77.56 58.06L77.56 58.06Z"></path>
</svg>